<svg xmlns="http://www.w3.org/2000/svg" width="1600" height="1120" viewBox="0 0 1600 1120" role="img" aria-label="Presenter marker contact sheet">
    <style>
    .reference-bg{fill:#101217}.reference-frame{fill:none;stroke:#2a3040;stroke-width:1}
    .target-surface{fill:#e9edf6;stroke:#75819b;stroke-width:1}.target-text{fill:#171b24;font:600 14px ui-sans-serif,system-ui}
    .marker-ink{fill:#ff4f8b;fill-opacity:.94;stroke:none;filter:drop-shadow(0 0 2px #ff4f8b55)}
    .safe-area{fill:#55e6a522;stroke:#55e6a5;stroke-width:1.5;stroke-dasharray:5 4}.safe-label{fill:#7df3bd;font:600 10px ui-monospace,monospace}
    .tail-start{fill:#fff;stroke:#101217;stroke-width:1}.tail-end{fill:#ffdb66;stroke:#101217;stroke-width:1}
    .seed-label{fill:#dfe5f3;font:600 12px ui-monospace,monospace}.metric-label{fill:#8994ab;font:11px ui-monospace,monospace}
    .sheet-title{fill:#f7f8fb;font:700 24px ui-sans-serif,system-ui}.sheet-subtitle{fill:#9aa5ba;font:12px ui-monospace,monospace}
    .contact-title{fill:#f7f8fb;font:700 18px ui-sans-serif,system-ui}.contact-meta{fill:#98a3b8;font:11px ui-monospace,monospace}
  </style>
    <rect class="reference-bg" width="1600" height="1120"/>
    <g data-contact-marker="freehand" transform="translate(0 0)">
      <rect class="reference-bg" width="400" height="280"/>
      <text class="contact-title" x="16" y="28">freehand</text>
      <text class="contact-meta" x="16" y="47">core · 0a1fc777</text>
      <g transform="translate(0 58) scale(.625)"><rect class="target-surface" x="165" y="88" width="310" height="38" rx="8"/><text x="320" y="112" text-anchor="middle" class="target-text">human decision checkpoint</text>

      <path data-production-ribbon="true" data-path-hash="0a1fc777" data-linecap="round" data-linejoin="round" class="marker-ink" d="M178.56 137.09L196.04 140.77L204.97 142.20L213.95 143.17L223.00 143.44L232.04 143.11L241.01 142.13L249.94 140.72L267.43 137.19L284.89 133.88L293.58 132.84L302.33 132.17L311.09 131.93L319.87 132.09L328.63 132.66L337.35 133.67L354.83 136.87L372.35 140.25L381.28 141.56L390.26 142.43L399.28 142.70L408.31 142.44L417.29 141.62L426.23 140.41L443.82 137.35L461.37 134.24C462.42 134.06 463.12 133.07 462.93 132.02C462.75 130.98 461.76 130.28 460.72 130.47L443.16 133.48L425.61 136.36L416.84 137.35L408.07 138.01L399.30 138.19L390.53 137.92L381.79 137.17L373.08 136.04L355.61 132.73L338.05 129.42L329.05 128.26L320.06 127.65L311.07 127.52L302.09 127.78L293.14 128.52L284.18 129.71L266.64 133.13L249.18 136.59L240.47 137.80L231.74 138.61L222.99 138.88L214.24 138.64L205.53 137.81L196.84 136.54L179.43 132.93C178.29 132.69 177.16 133.43 176.92 134.57C176.68 135.72 177.42 136.85 178.56 137.09Z"/>

      <text data-seed-label="true" class="seed-label" x="16" y="24">wide target · 310×38 · seed reference-alpha</text>
      <text class="metric-label" x="16" y="198">285px · 605ms · 0a1fc777</text></g>
    </g><g data-contact-marker="underline" transform="translate(400 0)">
      <rect class="reference-bg" width="400" height="280"/>
      <text class="contact-title" x="16" y="28">underline</text>
      <text class="contact-meta" x="16" y="47">core · 4690ce29</text>
      <g transform="translate(0 58) scale(.625)"><rect class="target-surface" x="165" y="88" width="310" height="38" rx="8"/><text x="320" y="112" text-anchor="middle" class="target-text">human decision checkpoint</text>

      <path data-production-ribbon="true" data-path-hash="4690ce29" data-linecap="round" data-linejoin="round" class="marker-ink" d="M192.80 139.47L210.13 139.99L227.45 140.54L244.78 141.05L262.11 141.54L279.45 142.07L296.79 142.30L314.13 142.58L331.50 142.88L348.88 142.56L366.23 141.87L383.54 141.24L400.86 140.83L418.19 140.45L435.56 140.06L438.87 139.75L441.94 135.84L438.39 134.72L433.72 134.60L422.88 134.30L405.49 133.94L388.08 134.37L370.74 135.31C369.64 135.37 368.80 136.30 368.86 137.40C368.92 138.49 369.86 139.33 370.95 139.27L388.23 138.35L405.49 137.94L422.77 138.35L433.55 138.84L438.06 139.22L438.12 138.56L438.24 135.12L435.35 135.58L418.07 136.27L400.75 136.83L383.42 137.30L366.08 137.91L348.77 138.59L331.49 138.91L314.19 138.67L296.85 138.41L279.53 138.19L262.22 137.67L244.89 137.20L227.57 136.70L210.24 136.16L192.92 135.65C191.86 135.61 190.98 136.44 190.95 137.50C190.91 138.56 191.74 139.44 192.80 139.47Z"/>

      <text data-seed-label="true" class="seed-label" x="16" y="24">wide target · 310×38 · seed reference-alpha</text>
      <text class="metric-label" x="16" y="198">317px · 672ms · 4690ce29</text></g>
    </g><g data-contact-marker="oval" transform="translate(800 0)">
      <rect class="reference-bg" width="400" height="280"/>
      <text class="contact-title" x="16" y="28">oval</text>
      <text class="contact-meta" x="16" y="47">core · 1aa457d5</text>
      <g transform="translate(0 58) scale(.625)"><rect class="target-surface" x="165" y="88" width="310" height="38" rx="8"/><text x="320" y="112" text-anchor="middle" class="target-text">human decision checkpoint</text>
      <rect data-protected-safe-area="true" class="safe-area" x="173" y="96" width="294" height="22" rx="4"/>
    <text class="safe-label" x="177" y="146">protected safe-area · min 7.2px</text>
      <path data-production-ribbon="true" data-path-hash="1aa457d5" data-linecap="round" data-linejoin="round" class="marker-ink" d="M482.12 120.47L476.16 122.76L470.98 124.50L466.31 125.73L462.19 126.29L457.84 126.58L448.81 126.78L430.87 127.22L412.95 127.43L395.02 127.46L377.09 127.48L359.15 127.48L341.21 127.47L323.27 127.43L305.33 127.39L287.39 127.35L269.45 127.33L251.52 127.30L233.59 127.22L215.67 127.02L197.77 126.55L188.87 126.11L179.95 125.34L170.42 124.78L166.26 124.10L164.94 123.62L163.83 122.96L162.97 122.11L162.22 121.08L160.67 117.74L159.59 113.92L158.82 110.00L158.17 105.64L157.86 101.06L158.22 96.82L158.62 95.43L159.21 94.28L160.03 93.38L161.11 92.58L164.68 90.93L173.43 88.56L177.49 87.81L181.77 87.38L190.76 86.98L208.68 86.58L226.60 86.49L244.53 86.47L262.47 86.51L280.41 86.56L298.35 86.60L316.29 86.63L334.23 86.66L352.16 86.71L370.10 86.76L388.04 86.82L405.98 86.90L423.90 87.02L441.83 87.33L450.77 87.51L459.67 88.05L468.94 88.70L473.08 89.47L474.59 90.01L475.94 90.75L477.10 91.73L478.13 92.89L480.23 96.30L481.97 100.19L483.49 104.18L484.85 108.20L485.91 112.36L486.56 116.47L486.67 120.29L485.91 124.44L484.41 129.15L482.24 134.68C481.77 135.87 482.35 137.21 483.54 137.68C484.74 138.15 486.08 137.56 486.55 136.37L488.78 130.71L490.40 125.57L491.30 120.66L491.18 116.04L490.46 111.42L489.30 106.89L487.85 102.61L486.26 98.42L484.34 94.14L481.94 90.25L480.35 88.41L478.55 86.92L476.45 85.76L474.06 84.98L469.35 84.30L459.90 83.86L450.91 83.48L441.89 83.40L423.95 83.15L406.00 83.06L388.06 82.97L370.12 82.89L352.18 82.82L334.24 82.76L316.30 82.72L298.36 82.68L280.42 82.64L262.48 82.59L244.54 82.54L226.59 82.54L208.64 82.58L190.67 82.80L181.57 82.94L176.91 83.19L172.33 83.97L163.21 86.44L158.88 88.41L156.88 89.86L155.32 91.60L154.23 93.71L153.55 96.15L153.15 101.03L153.49 106.14L154.18 110.80L155.01 115.03L156.26 119.37L158.07 123.30L159.40 125.17L160.98 126.70L162.98 127.89L165.33 128.68L170.06 129.30L179.68 129.66L188.63 130.25L197.65 130.58L215.60 130.96L233.56 131.10L251.51 131.15L269.45 131.17L287.39 131.19L305.33 131.22L323.26 131.27L341.21 131.30L359.15 131.31L377.09 131.31L395.03 131.30L412.98 131.30L430.93 131.13L448.87 130.83L457.92 130.88L462.56 130.81L467.21 130.28L472.33 128.92L477.73 127.03L483.75 124.67C484.91 124.22 485.48 122.91 485.03 121.75C484.58 120.59 483.28 120.02 482.12 120.47Z"/>
      <circle data-tail-start="true" class="tail-start" cx="482.93" cy="122.57" r="3"/>
    <circle data-tail-end="true" class="tail-end" cx="484.39" cy="135.52" r="3"/>
      <text data-seed-label="true" class="seed-label" x="16" y="24">wide target · 310×38 · seed reference-alpha</text>
      <text class="metric-label" x="16" y="198">728px · 1546ms · 1aa457d5</text></g>
    </g><g data-contact-marker="multi-oval" transform="translate(1200 0)">
      <rect class="reference-bg" width="400" height="280"/>
      <text class="contact-title" x="16" y="28">multi-oval</text>
      <text class="contact-meta" x="16" y="47">core · c88d678a</text>
      <g transform="translate(0 58) scale(.625)"><rect class="target-surface" x="165" y="88" width="310" height="38" rx="8"/><text x="320" y="112" text-anchor="middle" class="target-text">human decision checkpoint</text>
      <rect data-protected-safe-area="true" class="safe-area" x="173" y="96" width="294" height="22" rx="4"/>
    <text class="safe-label" x="177" y="146">protected safe-area · min 5.9px</text>
      <path data-production-ribbon="true" data-path-hash="c88d678a" data-linecap="round" data-linejoin="round" class="marker-ink" d="M479.79 118.93L473.93 121.60L468.83 123.65L464.24 125.09L460.19 125.76L455.89 126.12L446.89 126.43L429.03 127.00L411.19 127.31L393.33 127.35L375.46 127.40L357.59 127.42L339.72 127.45L321.85 127.47L303.98 127.48L286.11 127.50L268.24 127.52L250.36 127.53L232.49 127.52L214.64 127.50L196.80 127.11L187.92 126.77L179.09 126.00L169.66 125.08L165.53 124.15L164.14 123.54L162.99 122.75L162.10 121.73L161.35 120.48L160.02 116.78L159.25 112.64L158.88 108.55L158.78 104.28L159.08 99.85L160.02 95.81L160.65 94.43L161.43 93.31L162.47 92.45L163.75 91.74L167.73 90.50L177.02 89.00L181.33 88.37L185.67 87.96L194.56 87.41L212.38 86.89L230.23 86.75L248.10 86.69L265.96 86.67L283.83 86.71L301.70 86.74L319.57 86.77L337.44 86.81L355.31 86.87L373.18 86.94L391.05 87.03L408.92 87.12L426.77 87.36L444.62 87.77L453.50 88.05L462.30 88.77L471.76 89.73L475.74 90.68L476.84 91.22L477.63 91.85L478.15 92.66L478.53 93.76L478.95 97.82L479.04 107.44L480.74 116.73L481.11 120.72L480.96 121.91L480.60 122.90L480.00 123.71L479.17 124.48L476.08 126.29L472.38 127.72L468.64 128.88L464.72 129.69L460.50 130.10L451.43 130.45L433.58 131.05L415.73 131.26L397.86 131.43L380.00 131.56L362.13 131.61L344.26 131.64L326.39 131.66L308.52 131.67L290.65 131.67L272.78 131.65L254.91 131.63L237.04 131.60L219.18 131.56L201.33 131.32L183.48 130.71L174.28 130.42L170.00 129.94L168.23 129.52L166.63 128.94L163.31 127.06L160.23 124.60L157.64 121.75L155.79 118.63L155.29 117.11L154.94 115.35L154.71 111.09L155.60 101.99L156.82 93.31L157.99 89.64L158.68 88.41L159.52 87.40L160.65 86.62L162.03 86.02L166.18 85.12L175.65 84.25L184.50 83.41L193.37 82.98L211.21 82.55L229.06 82.31L246.92 82.31L264.79 82.32L282.66 82.34L300.53 82.36L318.40 82.39L336.27 82.43L354.15 82.46L372.02 82.50L389.89 82.53L407.75 82.57L425.60 82.80L443.45 83.12L452.31 83.49L461.19 84.18L470.30 84.90L474.52 85.60L476.25 86.09L477.83 86.72L481.14 88.61L484.20 91.00L486.75 93.73L488.58 96.74L489.03 98.13L489.33 99.77L489.43 104.01L488.82 113.37L489.06 122.67L488.77 126.82L488.40 128.37L487.83 129.74L486.84 131.08L485.26 132.59L480.88 135.80L475.09 139.21C473.98 139.86 473.61 141.28 474.26 142.39C474.91 143.49 476.33 143.86 477.44 143.21L483.41 139.69L488.16 136.21L490.29 134.18L491.85 132.06L492.81 129.80L493.38 127.38L493.70 122.69L493.46 113.46L494.07 104.18L493.96 99.43L493.53 96.98L492.70 94.62L490.44 90.92L487.33 87.58L483.73 84.77L479.95 82.59L477.71 81.69L475.34 81.08L470.70 80.51L461.47 80.02L452.53 79.46L443.54 79.16L425.66 78.92L407.78 78.74L389.90 78.72L372.02 78.70L354.15 78.66L336.28 78.62L318.41 78.57L300.54 78.53L282.67 78.50L264.80 78.47L246.92 78.43L229.04 78.39L211.15 78.57L193.25 78.89L184.23 79.23L175.29 79.94L165.65 80.62L160.85 81.46L158.39 82.44L156.33 83.88L154.75 85.74L153.56 87.98L152.26 92.44L151.04 101.45L150.07 110.84L150.22 115.77L150.68 118.32L151.53 120.77L153.81 124.59L156.96 128.08L160.64 131.01L164.51 133.21L166.89 134.09L169.38 134.62L174.10 134.95L183.38 134.96L201.25 135.37L219.15 135.53L237.03 135.54L254.91 135.56L272.78 135.58L290.65 135.59L308.52 135.59L326.39 135.58L344.27 135.56L362.14 135.53L380.02 135.48L397.89 135.34L415.77 135.19L433.66 135.04L451.54 134.60L460.67 134.53L465.33 134.30L469.79 133.45L473.93 132.18L478.12 130.54L481.80 128.40L483.50 126.88L484.77 125.11L485.56 122.98L485.82 120.58L485.40 116.01L483.73 106.99L483.65 97.64L483.18 92.98L482.41 90.64L481.12 88.68L479.29 87.20L477.03 86.19L472.35 85.24L462.66 84.46L453.71 83.88L444.71 83.75L426.83 83.44L408.95 83.25L391.07 83.17L373.20 83.10L355.33 83.03L337.45 82.97L319.58 82.93L301.71 82.90L283.84 82.86L265.96 82.83L248.09 82.84L230.21 82.87L212.32 82.93L194.42 83.29L185.40 83.65L180.83 84.00L176.35 84.64L166.85 86.07L162.18 87.37L159.86 88.55L157.99 90.14L156.57 92.12L155.53 94.48L154.45 99.17L154.10 104.16L154.20 108.81L154.61 113.29L155.50 117.99L157.05 122.32L158.31 124.47L159.89 126.25L161.91 127.66L164.33 128.63L169.10 129.52L178.73 130.26L187.69 130.90L196.70 131.15L214.60 131.43L232.50 131.39L250.37 131.36L268.24 131.34L286.11 131.32L303.98 131.31L321.85 131.29L339.72 131.27L357.60 131.25L375.47 131.22L393.34 131.20L411.23 131.18L429.12 130.91L446.99 130.49L456.03 130.44L460.67 130.28L465.31 129.61L470.41 128.01L475.76 125.82L481.70 123.09C482.85 122.56 483.35 121.21 482.82 120.06C482.30 118.91 480.94 118.41 479.79 118.93Z"/>
      <circle data-tail-start="true" class="tail-start" cx="480.74" cy="121.01" r="3"/>
    <circle data-tail-end="true" class="tail-end" cx="476.26" cy="141.21" r="3"/>
      <text data-seed-label="true" class="seed-label" x="16" y="24">wide target · 310×38 · seed reference-alpha</text>
      <text class="metric-label" x="16" y="198">1474px · 3130ms · c88d678a</text></g>
    </g><g data-contact-marker="arrow" transform="translate(0 280)">
      <rect class="reference-bg" width="400" height="280"/>
      <text class="contact-title" x="16" y="28">arrow</text>
      <text class="contact-meta" x="16" y="47">core · d4c6a0cd</text>
      <g transform="translate(0 58) scale(.625)"><rect class="target-surface" x="280" y="88" width="310" height="38" rx="8"/><text x="435" y="112" text-anchor="middle" class="target-text">human decision checkpoint</text>

      <path data-production-ribbon="true" data-path-hash="d4c6a0cd" data-linecap="round" data-linejoin="round" class="marker-ink" d="M58.57 113.05L64.91 111.34L70.44 110.00L75.35 108.98L84.10 107.99L93.00 107.44L110.89 106.73L128.79 106.48L146.70 106.46L164.60 106.65L182.51 107.22L200.47 107.70L218.42 107.68L236.35 107.90L245.62 108.00L250.03 108.23L253.98 108.70L260.44 109.80L262.73 110.53L262.84 110.59L262.62 109.89L262.61 109.71L261.97 110.48L258.34 113.46L249.83 119.67L241.84 126.50L249.80 125.33L254.45 121.62L258.37 118.08L264.31 112.24L266.79 108.96L267.69 106.79L267.85 104.45L267.03 102.06L265.39 99.96L261.55 96.86L257.12 93.99L253.28 91.28L239.61 79.74C238.66 78.93 237.24 79.05 236.43 80.00C235.63 80.96 235.75 82.38 236.70 83.18L250.41 94.80L254.52 97.79L258.84 100.62L262.24 103.36L262.97 104.32L263.25 105.10L263.17 105.69L262.87 106.48L260.93 109.13L255.23 114.83L251.57 118.31L247.11 122.09L244.54 129.74L252.55 123.19L261.11 117.20L265.14 114.01L266.76 112.06L267.38 109.52L266.22 107.22L264.50 106.10L261.43 105.13L254.65 104.00L250.31 103.63L245.65 103.64L236.37 103.78L218.44 103.68L200.51 103.74L182.62 103.28L164.68 102.73L146.72 102.54L128.76 102.56L110.80 102.77L92.84 103.33L83.77 103.66L74.71 104.50L69.41 105.63L63.78 107.15L57.43 108.99C56.31 109.31 55.66 110.47 55.97 111.59C56.29 112.71 57.45 113.37 58.57 113.05Z"/>

      <text data-seed-label="true" class="seed-label" x="16" y="24">wide target · 310×38 · seed reference-alpha</text>
      <text class="metric-label" x="16" y="198">307px · 651ms · d4c6a0cd</text></g>
    </g><g data-contact-marker="converging-arrows" transform="translate(400 280)">
      <rect class="reference-bg" width="400" height="280"/>
      <text class="contact-title" x="16" y="28">converging-arrows</text>
      <text class="contact-meta" x="16" y="47">core · 7e3d5a96</text>
      <g transform="translate(0 58) scale(.625)"><rect class="target-surface" x="165" y="88" width="310" height="38" rx="8"/><text x="320" y="112" text-anchor="middle" class="target-text">human decision checkpoint</text>

      <path data-production-ribbon="true" data-path-hash="7e3d5a96" data-linecap="round" data-linejoin="round" class="marker-ink" d="M219.91 66.92L237.64 67.77L255.36 68.67L273.08 69.66L290.73 70.80L300.98 72.25L305.79 72.68L308.12 72.46L310.37 71.31L311.46 68.98L311.48 66.75L306.59 64.14L305.45 69.33L305.18 72.93L305.45 74.97L306.80 77.02L309.21 77.78L311.45 77.40L315.26 75.85L319.45 74.00L321.29 73.38L322.80 73.03L326.78 72.83L331.06 73.04L340.15 73.78L357.96 74.24L375.69 74.68L393.40 75.57L411.05 76.59L408.12 72.36L390.44 71.52L372.72 70.56L354.98 69.43L345.71 69.05L341.36 68.73L337.67 68.19L335.40 67.40L332.95 66.21L330.52 65.15L328.83 64.80L326.69 65.19L325.01 66.79L324.26 68.47L323.89 69.52L325.81 68.57L326.13 68.49L325.77 68.12C324.83 67.24 323.36 67.30 322.49 68.23C321.62 69.17 321.67 70.64 322.60 71.51L323.51 72.32L325.69 73.20L328.16 71.35L328.59 70.15L328.88 69.33L328.88 69.28L328.60 69.43L328.92 69.51L331.00 70.42L333.65 71.70L336.72 72.69L340.98 73.17L345.56 73.27L354.77 73.45L372.48 74.54L390.20 75.68L407.96 76.80L411.40 72.14L393.60 71.35L375.83 70.64L358.07 70.18L340.36 69.61L331.42 68.71L326.87 68.30L322.38 68.39L320.02 68.87L317.68 69.69L313.44 71.57L309.95 72.98L309.31 73.10L309.59 73.25L309.94 73.59L309.88 73.01L310.10 70.01L310.73 66.35L306.83 67.44L306.84 68.15L307.02 68.03L307.01 67.92L305.92 68.04L301.49 67.77L291.09 66.55L273.30 65.65L255.56 64.80L237.82 63.94L220.09 63.09C219.03 63.04 218.14 63.86 218.09 64.92C218.04 65.97 218.85 66.87 219.91 66.92Z"/>

      <text data-seed-label="true" class="seed-label" x="16" y="24">wide target · 310×38 · seed reference-alpha</text>
      <text class="metric-label" x="16" y="198">298px · 633ms · 7e3d5a96</text></g>
    </g><g data-contact-marker="route" transform="translate(800 280)">
      <rect class="reference-bg" width="400" height="280"/>
      <text class="contact-title" x="16" y="28">route</text>
      <text class="contact-meta" x="16" y="47">core · 5e5aa9f1</text>
      <g transform="translate(0 58) scale(.625)"><rect class="target-surface" x="165" y="88" width="310" height="38" rx="8"/><text x="320" y="112" text-anchor="middle" class="target-text">human decision checkpoint</text>

      <path data-production-ribbon="true" data-path-hash="5e5aa9f1" data-linecap="round" data-linejoin="round" class="marker-ink" d="M189.55 141.81L205.81 143.96L222.07 146.15L238.31 148.42L254.51 150.84L262.59 152.38L266.77 153.11L271.06 153.44L275.35 153.20L279.53 152.55L287.64 151.14L303.88 148.63L320.08 145.70L336.17 142.45L352.30 139.63L360.40 138.33L364.38 137.85L368.29 137.56L372.22 137.49L376.23 137.62L384.45 138.19L400.84 139.12L417.22 140.17L433.61 141.16L450.00 142.07C451.05 142.13 451.95 141.32 452.01 140.27C452.07 139.21 451.26 138.31 450.21 138.25L433.83 137.34L417.46 136.32L401.09 135.20L384.73 134.10L376.56 133.29L372.36 132.90L368.08 132.85L363.83 133.28L359.68 134.04L351.59 135.58L335.41 138.49L319.32 141.76L303.23 144.67L287.02 147.08L278.90 148.27L274.95 148.65L271.11 148.79L267.26 148.59L263.31 148.10L255.14 146.78L238.86 144.52L222.59 142.32L206.32 140.15L190.05 138.01C189.00 137.87 188.04 138.61 187.90 139.66C187.76 140.71 188.50 141.68 189.55 141.81Z"/>

      <text data-seed-label="true" class="seed-label" x="16" y="24">wide target · 310×38 · seed reference-alpha</text>
      <text class="metric-label" x="16" y="198">263px · 558ms · 5e5aa9f1</text></g>
    </g><g data-contact-marker="bidirectional-route" transform="translate(1200 280)">
      <rect class="reference-bg" width="400" height="280"/>
      <text class="contact-title" x="16" y="28">bidirectional-route</text>
      <text class="contact-meta" x="16" y="47">extended · 44aa8c54</text>
      <g transform="translate(0 58) scale(.625)"><rect class="target-surface" x="165" y="88" width="310" height="38" rx="8"/><text x="320" y="112" text-anchor="middle" class="target-text">human decision checkpoint</text>

      <path data-production-ribbon="true" data-path-hash="44aa8c54" data-linecap="round" data-linejoin="round" class="marker-ink" d="M197.63 133.20L195.78 137.70L194.17 140.77L193.65 141.47L194.16 141.36L193.99 141.25L192.88 140.57L191.95 139.78L192.07 141.03L190.63 142.67L191.62 142.66L196.14 143.18L206.89 144.85L224.24 147.17L241.55 149.64L258.88 152.21L267.62 153.25L272.09 153.64L276.60 153.64L281.12 153.15L285.52 152.31L294.14 150.69L311.42 147.85L328.62 144.53L345.82 141.38L354.44 139.82L358.69 139.23L362.88 138.82L367.09 138.65L371.37 138.62L380.09 138.93L397.56 139.79L415.01 140.78L432.44 141.90L443.19 142.99L447.92 143.40L450.03 143.32L452.58 141.08L451.56 138.11L449.84 136.60L447.71 135.37L445.03 134.98L442.81 136.25L441.53 137.92L439.68 141.41L437.74 146.09C437.25 147.27 437.82 148.63 439.00 149.12C440.18 149.61 441.54 149.05 442.03 147.86L443.89 143.35L445.52 140.28L446.06 139.56L445.73 139.57L446.02 139.70L447.15 140.38L448.04 141.13L448.04 140.12L448.96 138.84L448.08 138.91L443.54 138.74L432.73 137.85L415.24 136.85L397.77 135.86L380.30 134.87L371.55 134.30L367.08 134.04L362.55 134.12L358.05 134.67L353.65 135.56L345.06 137.36L327.87 140.61L310.72 143.93L293.47 146.70L284.81 148.13L280.55 148.69L276.38 149.01L272.23 149.04L268.02 148.86L259.42 148.08L242.11 145.72L224.79 143.27L207.48 140.85L196.81 138.96L192.15 138.19L190.25 138.04L187.48 140.16L188.54 142.97L190.18 144.38L192.25 145.59L194.83 145.98L196.99 144.74L198.20 143.12L200.03 139.65L201.95 134.97C202.44 133.78 201.87 132.41 200.68 131.92C199.49 131.43 198.12 132.00 197.63 133.20Z"/>

      <text data-seed-label="true" class="seed-label" x="16" y="24">wide target · 310×38 · seed reference-alpha</text>
      <text class="metric-label" x="16" y="198">297px · 631ms · 44aa8c54</text></g>
    </g><g data-contact-marker="parallel-route" transform="translate(0 560)">
      <rect class="reference-bg" width="400" height="280"/>
      <text class="contact-title" x="16" y="28">parallel-route</text>
      <text class="contact-meta" x="16" y="47">extended · 2ed54456</text>
      <g transform="translate(0 58) scale(.625)"><rect class="target-surface" x="165" y="88" width="310" height="38" rx="8"/><text x="320" y="112" text-anchor="middle" class="target-text">human decision checkpoint</text>

      <path data-production-ribbon="true" data-path-hash="2ed54456" data-linecap="round" data-linejoin="round" class="marker-ink" d="M189.80 140.92L207.52 140.89L225.23 140.83L242.94 140.81L260.65 140.80L278.36 140.80L296.07 140.83L313.78 140.90L331.49 140.97L349.21 141.01L366.92 141.06L384.62 141.16L402.33 141.39L420.09 141.62L429.24 141.32L433.48 141.35L437.28 141.80L440.88 142.70L444.70 143.95L447.61 145.31L447.90 145.55L447.49 144.46L447.82 143.34L447.55 143.60L444.75 145.11L441.04 146.55L437.53 147.59L433.73 148.15L429.47 148.25L420.34 148.04L402.60 148.24L384.90 148.30L367.19 148.27L349.47 148.26L331.76 148.24L314.05 148.21L296.34 148.16L278.63 148.09L260.92 147.99L243.20 147.90L225.49 147.86L207.77 147.85L190.06 147.85C189.02 147.85 188.17 148.70 188.17 149.74C188.17 150.79 189.01 151.64 190.06 151.64L207.77 151.64L225.48 151.66L243.19 151.70L260.90 151.81L278.61 151.93L296.33 152.02L314.04 152.10L331.76 152.15L349.47 152.17L367.18 152.20L384.89 152.25L402.62 152.29L420.30 152.27L429.37 152.71L434.04 152.78L438.50 152.21L442.57 151.03L446.71 149.42L450.03 147.63L451.40 146.43L452.21 144.30L451.26 142.23L449.82 141.14L446.40 139.55L442.18 138.17L438.09 137.18L433.68 136.77L429.09 136.92L420.05 137.44L402.37 137.40L384.65 137.27L366.93 137.21L349.22 137.16L331.50 137.12L313.79 137.06L296.08 137.00L278.36 136.97L260.65 136.97L242.93 136.98L225.22 137.01L207.51 137.06L189.80 137.10C188.74 137.10 187.89 137.96 187.89 139.02C187.89 140.07 188.75 140.93 189.80 140.92Z"/>

      <text data-seed-label="true" class="seed-label" x="16" y="24">wide target · 310×38 · seed reference-alpha</text>
      <text class="metric-label" x="16" y="198">523px · 1109ms · 2ed54456</text></g>
    </g><g data-contact-marker="label" transform="translate(400 560)">
      <rect class="reference-bg" width="400" height="280"/>
      <text class="contact-title" x="16" y="28">label</text>
      <text class="contact-meta" x="16" y="47">extended · 5f33989c</text>
      <g transform="translate(0 58) scale(.625)"><rect class="target-surface" x="165" y="88" width="310" height="38" rx="8"/><text x="320" y="112" text-anchor="middle" class="target-text">human decision checkpoint</text>

      <path data-production-ribbon="true" data-path-hash="5f33989c" data-linecap="round" data-linejoin="round" class="marker-ink" d="M166.01 83.33L183.72 83.29L201.43 83.23L219.14 83.17L236.85 83.12L254.56 83.09L272.28 83.07L289.99 83.05L307.70 83.04L325.41 83.06L343.12 83.09L360.83 83.11L378.55 83.12L396.26 83.12L413.97 83.15L431.68 83.19L449.40 83.32L458.39 83.26L462.73 83.32L466.96 83.59L475.27 84.14L478.59 84.87L479.31 85.25L479.76 85.60L480.10 86.26L480.31 87.29L480.18 91.50L479.54 96.46L479.18 101.53L479.52 110.64L479.54 114.93L479.19 118.96L478.20 126.58L477.31 129.56L476.88 130.28L476.42 130.78L475.60 131.20L474.45 131.44L470.22 131.37L465.29 130.84L460.32 130.62L442.58 130.95L424.87 131.14L407.17 131.20L389.46 131.20L371.75 131.16L354.04 131.10L336.32 131.07L318.61 131.04L300.90 131.00L283.19 130.96L265.48 130.90L247.77 130.84L230.05 130.76L212.34 130.64L194.63 130.45L176.87 130.22L171.82 130.52L166.80 131.14L162.55 131.26L161.51 131.03L160.92 130.70L160.60 130.20L160.31 129.29L160.11 125.40L160.57 116.02L160.08 106.98L160.08 102.75L160.52 98.84L161.82 94.57L163.79 89.82L166.43 84.33C166.98 83.18 166.49 81.79 165.34 81.24C164.18 80.68 162.80 81.17 162.25 82.32L159.56 87.92L157.45 93.00L155.98 97.88L155.46 102.50L155.46 107.15L155.94 116.02L155.47 125.32L155.70 129.86L156.41 132.19L157.79 134.12L159.88 135.37L162.36 135.90L167.18 135.76L172.31 135.06L176.93 134.57L194.61 134.50L212.32 134.50L230.03 134.59L247.75 134.68L265.46 134.77L283.18 134.84L300.89 134.90L318.60 134.95L336.31 134.99L354.03 135.03L371.74 135.08L389.45 135.13L407.17 135.13L424.89 135.11L442.61 135.09L460.29 135.04L464.87 135.46L469.90 136.08L474.67 136.16L477.12 135.67L479.19 134.61L480.67 133.09L481.74 131.21L482.85 127.41L483.85 119.46L484.12 115.07L484.04 110.52L483.76 101.56L484.19 96.96L484.86 91.90L485.01 87.14L484.54 84.73L483.46 82.70L481.83 81.28L479.79 80.38L475.72 79.67L467.21 79.25L462.85 79.02L458.34 79.07L449.39 79.30L431.69 79.29L413.97 79.29L396.26 79.28L378.55 79.28L360.84 79.27L343.13 79.25L325.41 79.22L307.70 79.21L289.98 79.22L272.27 79.24L254.56 79.27L236.85 79.30L219.13 79.34L201.42 79.40L183.71 79.46L165.99 79.51C164.94 79.51 164.09 80.37 164.09 81.43C164.09 82.48 164.95 83.34 166.01 83.33Z"/>

      <text data-seed-label="true" class="seed-label" x="16" y="24">wide target · 310×38 · seed reference-alpha</text>
      <text class="metric-label" x="16" y="198">736px · 1562ms · 5f33989c</text></g>
    </g><g data-contact-marker="number" transform="translate(800 560)">
      <rect class="reference-bg" width="400" height="280"/>
      <text class="contact-title" x="16" y="28">number</text>
      <text class="contact-meta" x="16" y="47">extended · fd5dd83f</text>
      <g transform="translate(0 58) scale(.625)"><rect class="target-surface" x="165" y="88" width="310" height="38" rx="8"/><text x="320" y="112" text-anchor="middle" class="target-text">human decision checkpoint</text>

      <path data-production-ribbon="true" data-path-hash="fd5dd83f" data-linecap="round" data-linejoin="round" class="marker-ink" d="M143.09 92.29L145.47 92.81L147.30 93.35L148.46 93.84L150.48 95.64L151.90 97.85L152.63 100.55L152.69 101.75L152.58 102.95L152.25 104.11L151.75 105.19L150.11 107.43L148.04 108.96L145.64 109.89L142.91 110.09L141.83 109.92L140.76 109.58L139.75 109.03L138.81 108.35L136.89 106.40L135.64 104.17L134.87 101.71L134.91 99.00L135.21 97.90L135.69 96.79L136.40 95.73L137.37 94.69L138.43 93.85L139.20 93.40L141.23 93.00L141.52 93.00L140.79 92.14L140.63 91.45L140.04 92.53L139.16 94.19L138.93 96.31L141.00 98.31L142.19 98.38L144.16 98.24L145.90 98.20L145.84 98.23L144.95 97.46L144.78 96.24L144.91 96.11L143.92 97.45L142.50 99.22L141.49 101.76L142.16 104.38L143.34 106.15L144.08 107.16L144.00 106.49L145.58 104.63L145.21 104.70L143.23 104.65L140.26 104.31C138.98 104.16 137.83 105.07 137.69 106.35C137.54 107.62 138.45 108.77 139.72 108.92L142.88 109.28L145.31 109.34L146.45 109.19L148.59 107.15L148.19 104.99L147.15 103.50L146.32 102.32L146.08 102.02L146.32 101.51L147.35 100.15L148.58 98.68L149.28 97.38L149.07 95.20L147.38 93.84L145.93 93.68L143.96 93.80L142.19 93.84L142.09 93.74L143.57 95.46L143.54 95.79L144.12 94.72L145.04 93.01L145.11 90.18L142.75 88.39L140.67 88.26L137.74 88.86L135.77 89.88L134.13 91.20L132.67 92.76L131.51 94.50L130.70 96.39L130.18 98.59L130.19 102.40L131.31 106.04L133.13 109.23L135.63 111.81L137.23 113.00L138.93 113.91L140.81 114.50L142.95 114.78L146.68 114.47L150.30 113.07L153.42 110.75L155.69 107.73L156.63 105.76L157.18 103.82L157.37 101.80L157.21 99.61L156.17 95.94L154.05 92.61L151.18 90.03L148.91 88.96L146.62 88.29L144.10 87.73C142.84 87.45 141.60 88.24 141.32 89.50C141.04 90.76 141.83 92.01 143.09 92.29Z"/>

      <text data-seed-label="true" class="seed-label" x="16" y="24">wide target · 310×38 · seed reference-alpha</text>
      <text class="metric-label" x="16" y="198">99px · 211ms · fd5dd83f</text></g>
    </g><g data-contact-marker="box" transform="translate(1200 560)">
      <rect class="reference-bg" width="400" height="280"/>
      <text class="contact-title" x="16" y="28">box</text>
      <text class="contact-meta" x="16" y="47">extended · 25812570</text>
      <g transform="translate(0 58) scale(.625)"><rect class="target-surface" x="165" y="88" width="310" height="38" rx="8"/><text x="320" y="112" text-anchor="middle" class="target-text">human decision checkpoint</text>

      <path data-production-ribbon="true" data-path-hash="25812570" data-linecap="round" data-linejoin="round" class="marker-ink" d="M160.33 84.92L178.06 84.88L195.80 84.82L213.54 84.77L231.27 84.73L249.01 84.71L266.75 84.69L284.48 84.67L302.22 84.68L319.95 84.70L337.69 84.74L355.43 84.77L373.17 84.78L390.91 84.79L408.64 84.82L426.37 84.88L444.11 85.08L461.89 85.35L466.99 85.06L472.04 84.44L476.26 84.33L477.17 84.54L477.59 84.77L477.82 85.16L478.05 86.03L478.06 90.13L477.55 95.06L477.29 100.09L477.78 109.21L477.84 113.48L477.50 117.42L476.28 124.73L475.26 127.57L474.77 128.31L474.23 128.86L473.32 129.31L472.09 129.56L467.84 129.51L462.93 129.01L457.98 128.80L440.22 129.13L422.49 129.31L404.76 129.39L387.02 129.40L369.29 129.39L351.55 129.39L333.81 129.39L316.07 129.40L298.34 129.40L280.60 129.38L262.87 129.36L245.13 129.32L227.39 129.26L209.65 129.17L191.89 129.07L182.85 129.22L178.53 129.16L174.41 128.82L166.52 127.93L163.37 127.06L162.59 126.61L162.04 126.13L161.62 125.30L161.37 124.12L161.46 119.87L162.05 114.94L162.39 109.94L162.26 92.16C162.25 90.92 161.23 89.91 159.99 89.92C158.74 89.93 157.73 90.95 157.74 92.19L157.84 109.90L157.47 114.49L156.85 119.53L156.74 124.32L157.23 126.79L158.31 128.89L159.89 130.39L161.87 131.44L165.80 132.46L173.98 133.32L178.39 133.57L182.94 133.44L191.93 133.08L209.64 133.06L227.38 133.09L245.12 133.16L262.86 133.21L280.60 133.25L298.33 133.29L316.07 133.31L333.81 133.31L351.55 133.31L369.28 133.31L387.02 133.33L404.76 133.32L422.51 133.28L440.25 133.27L457.96 133.23L462.52 133.64L467.54 134.23L472.33 134.29L474.81 133.80L476.92 132.75L478.45 131.28L479.59 129.45L480.89 125.76L482.16 118.04L482.47 113.61L482.36 109.02L481.91 100.02L482.22 95.44L482.76 90.38L482.74 85.69L482.15 83.34L480.86 81.39L478.86 80.15L476.45 79.63L471.66 79.76L466.51 80.46L461.84 80.95L444.13 80.98L426.39 80.98L408.65 80.97L390.91 80.95L373.17 80.94L355.43 80.93L337.70 80.90L319.96 80.87L302.22 80.84L284.48 80.84L266.74 80.86L249.01 80.88L231.27 80.91L213.53 80.94L195.79 81.00L178.05 81.05L160.32 81.10C159.26 81.10 158.41 81.96 158.41 83.01C158.41 84.07 159.27 84.92 160.33 84.92Z"/>

      <text data-seed-label="true" class="seed-label" x="16" y="24">wide target · 310×38 · seed reference-alpha</text>
      <text class="metric-label" x="16" y="198">720px · 1529ms · 25812570</text></g>
    </g><g data-contact-marker="bracket" transform="translate(0 840)">
      <rect class="reference-bg" width="400" height="280"/>
      <text class="contact-title" x="16" y="28">bracket</text>
      <text class="contact-meta" x="16" y="47">extended · 2ea93f2d</text>
      <g transform="translate(0 58) scale(.625)"><rect class="target-surface" x="165" y="88" width="310" height="38" rx="8"/><text x="320" y="112" text-anchor="middle" class="target-text">human decision checkpoint</text>

      <path data-production-ribbon="true" data-path-hash="2ea93f2d" data-linecap="round" data-linejoin="round" class="marker-ink" d="M169.97 81.95L165.70 82.35L161.52 82.66L159.25 82.54L157.70 82.63L155.86 83.52L154.83 85.29L154.65 86.81L154.65 89.08L154.47 93.35L154.16 97.58L153.68 101.95L153.73 106.47L154.13 110.75L154.17 114.90L154.04 119.15L153.84 123.36L153.42 125.56L153.30 127.10L153.82 128.97L155.16 130.31L156.55 130.94L158.83 131.52L163.24 132.00L167.54 132.40C168.72 132.53 169.78 131.67 169.90 130.48C170.03 129.30 169.17 128.24 167.98 128.12L163.74 127.63L159.61 127.04L158.01 126.53L157.71 126.39L157.90 126.65L157.99 126.81L158.05 126.19L158.37 123.73L158.51 119.33L158.74 115.01L158.83 110.55L158.45 106.22L158.35 102.13L158.69 97.93L158.89 93.58L159.11 89.26L159.24 87.07L159.31 86.59L159.01 86.97L158.67 87.20L159.28 87.18L161.78 87.13L166.15 86.58L170.43 86.03C171.55 85.90 172.36 84.89 172.24 83.77C172.11 82.64 171.10 81.83 169.97 81.95Z"/>

      <text data-seed-label="true" class="seed-label" x="16" y="24">wide target · 310×38 · seed reference-alpha</text>
      <text class="metric-label" x="16" y="198">68px · 144ms · 2ea93f2d</text></g>
    </g><g data-contact-marker="slash" transform="translate(400 840)">
      <rect class="reference-bg" width="400" height="280"/>
      <text class="contact-title" x="16" y="28">slash</text>
      <text class="contact-meta" x="16" y="47">extended · 969dcf3e</text>
      <g transform="translate(0 58) scale(.625)"><rect class="target-surface" x="165" y="88" width="310" height="38" rx="8"/><text x="320" y="112" text-anchor="middle" class="target-text">human decision checkpoint</text>

      <path data-production-ribbon="true" data-path-hash="969dcf3e" data-linecap="round" data-linejoin="round" class="marker-ink" d="M482.79 77.99L465.65 80.91L448.51 83.81L431.36 86.66L414.21 89.47L397.04 92.21L379.87 94.99L362.71 97.73L345.51 100.29L328.31 103.11L311.21 106.35L294.12 109.52L277.00 112.42L259.85 115.22L242.69 118.06L225.53 120.84L208.37 123.58L191.18 126.28L174.02 129.08L156.86 131.93C155.82 132.10 155.12 133.08 155.29 134.11C155.47 135.15 156.44 135.85 157.48 135.68L174.63 132.84L191.79 130.05L208.96 127.38L226.15 124.67L243.32 121.91L260.48 119.11L277.65 116.32L294.82 113.42L311.94 110.25L329.00 107.00L346.12 104.18L363.31 101.58L380.49 98.81L397.65 96.01L414.82 93.27L431.99 90.45L449.14 87.59L466.29 84.68L483.43 81.76C484.48 81.59 485.18 80.60 485.00 79.56C484.82 78.51 483.83 77.81 482.79 77.99Z"/>

      <text data-seed-label="true" class="seed-label" x="16" y="24">wide target · 310×38 · seed reference-alpha</text>
      <text class="metric-label" x="16" y="198">330px · 701ms · 969dcf3e</text></g>
    </g>
  </svg>